<svg width="128" height="148" viewBox="0 0 128 148" fill="none" xmlns="http://www.w3.org/2000/svg">
<g filter="url(#filter0_ii_4_922)">
<mask id="mask0_4_922" style="mask-type:alpha" maskUnits="userSpaceOnUse" x="0" y="2" width="128" height="144">
<path d="M55.9919 4.62966C60.9464 1.76533 67.0535 1.76533 72.008 4.62965L120.008 32.3796C124.954 35.239 128 40.5185 128 46.2314V101.769C128 107.482 124.954 112.761 120.008 115.62L72.008 143.37C67.0535 146.235 60.9465 146.235 55.9919 143.37L7.99196 115.62C3.04608 112.761 0 107.482 0 101.769V46.2314C0 40.5185 3.04607 35.239 7.99195 32.3797L55.9919 4.62966Z" fill="#D9D9D9"/>
</mask>
<g mask="url(#mask0_4_922)">
<g clip-path="url(#clip0_4_922)">
<rect width="128" height="148" fill="white"/>
<rect width="128" height="148" fill="url(#paint0_linear_4_922)"/>
<g opacity="0.25" filter="url(#filter1_f_4_922)" style="mix-blend-mode:soft-light">
<ellipse cx="101.5" cy="117" rx="46.5" ry="37" fill="#96D919"/>
</g>
<g opacity="0.25" filter="url(#filter2_f_4_922)" style="mix-blend-mode:soft-light">
<ellipse cx="26.5" cy="31" rx="49.5" ry="39" fill="#D91992"/>
</g>
<g filter="url(#filter3_d_4_922)" style="mix-blend-mode:overlay">
<path d="M18.115 83.61V78.66L32.83 57.6H40.165V78.12H44.125V83.61H40.165V90H33.865V83.61H18.115ZM34.27 64.35L25.045 78.12H34.27V64.35ZM48.136 73.17C48.136 67.98 49.066 63.915 50.926 60.975C52.816 58.035 55.936 56.565 60.286 56.565C64.636 56.565 67.741 58.035 69.601 60.975C71.491 63.915 72.436 67.98 72.436 73.17C72.436 78.39 71.491 82.485 69.601 85.455C67.741 88.425 64.636 89.91 60.286 89.91C55.936 89.91 52.816 88.425 50.926 85.455C49.066 82.485 48.136 78.39 48.136 73.17ZM66.226 73.17C66.226 70.95 66.076 69.09 65.776 67.59C65.506 66.06 64.936 64.815 64.066 63.855C63.226 62.895 61.966 62.415 60.286 62.415C58.606 62.415 57.331 62.895 56.461 63.855C55.621 64.815 55.051 66.06 54.751 67.59C54.481 69.09 54.346 70.95 54.346 73.17C54.346 75.45 54.481 77.37 54.751 78.93C55.021 80.46 55.591 81.705 56.461 82.665C57.331 83.595 58.606 84.06 60.286 84.06C61.966 84.06 63.241 83.595 64.111 82.665C64.981 81.705 65.551 80.46 65.821 78.93C66.091 77.37 66.226 75.45 66.226 73.17ZM76.5078 65.25C76.5078 62.97 77.1678 61.185 78.4878 59.895C79.8378 58.605 81.5628 57.96 83.6628 57.96C85.7628 57.96 87.4728 58.605 88.7928 59.895C90.1428 61.185 90.8178 62.97 90.8178 65.25C90.8178 67.56 90.1428 69.36 88.7928 70.65C87.4728 71.94 85.7628 72.585 83.6628 72.585C81.5628 72.585 79.8378 71.94 78.4878 70.65C77.1678 69.36 76.5078 67.56 76.5078 65.25ZM105.398 58.5L87.7128 90H81.5928L99.2328 58.5H105.398ZM83.6178 61.74C81.9678 61.74 81.1428 62.91 81.1428 65.25C81.1428 67.62 81.9678 68.805 83.6178 68.805C84.4278 68.805 85.0578 68.52 85.5078 67.95C85.9578 67.35 86.1828 66.45 86.1828 65.25C86.1828 62.91 85.3278 61.74 83.6178 61.74ZM96.2628 83.205C96.2628 80.895 96.9228 79.11 98.2428 77.85C99.5928 76.56 101.318 75.915 103.418 75.915C105.518 75.915 107.213 76.56 108.503 77.85C109.823 79.11 110.483 80.895 110.483 83.205C110.483 85.515 109.823 87.315 108.503 88.605C107.213 89.895 105.518 90.54 103.418 90.54C101.288 90.54 99.5628 89.895 98.2428 88.605C96.9228 87.315 96.2628 85.515 96.2628 83.205ZM103.373 79.695C101.663 79.695 100.808 80.865 100.808 83.205C100.808 85.575 101.663 86.76 103.373 86.76C105.053 86.76 105.893 85.575 105.893 83.205C105.893 80.865 105.053 79.695 103.373 79.695Z" fill="white"/>
</g>
<path d="M18.115 83.61V78.66L32.83 57.6H40.165V78.12H44.125V83.61H40.165V90H33.865V83.61H18.115ZM34.27 64.35L25.045 78.12H34.27V64.35ZM48.136 73.17C48.136 67.98 49.066 63.915 50.926 60.975C52.816 58.035 55.936 56.565 60.286 56.565C64.636 56.565 67.741 58.035 69.601 60.975C71.491 63.915 72.436 67.98 72.436 73.17C72.436 78.39 71.491 82.485 69.601 85.455C67.741 88.425 64.636 89.91 60.286 89.91C55.936 89.91 52.816 88.425 50.926 85.455C49.066 82.485 48.136 78.39 48.136 73.17ZM66.226 73.17C66.226 70.95 66.076 69.09 65.776 67.59C65.506 66.06 64.936 64.815 64.066 63.855C63.226 62.895 61.966 62.415 60.286 62.415C58.606 62.415 57.331 62.895 56.461 63.855C55.621 64.815 55.051 66.06 54.751 67.59C54.481 69.09 54.346 70.95 54.346 73.17C54.346 75.45 54.481 77.37 54.751 78.93C55.021 80.46 55.591 81.705 56.461 82.665C57.331 83.595 58.606 84.06 60.286 84.06C61.966 84.06 63.241 83.595 64.111 82.665C64.981 81.705 65.551 80.46 65.821 78.93C66.091 77.37 66.226 75.45 66.226 73.17ZM76.5078 65.25C76.5078 62.97 77.1678 61.185 78.4878 59.895C79.8378 58.605 81.5628 57.96 83.6628 57.96C85.7628 57.96 87.4728 58.605 88.7928 59.895C90.1428 61.185 90.8178 62.97 90.8178 65.25C90.8178 67.56 90.1428 69.36 88.7928 70.65C87.4728 71.94 85.7628 72.585 83.6628 72.585C81.5628 72.585 79.8378 71.94 78.4878 70.65C77.1678 69.36 76.5078 67.56 76.5078 65.25ZM105.398 58.5L87.7128 90H81.5928L99.2328 58.5H105.398ZM83.6178 61.74C81.9678 61.74 81.1428 62.91 81.1428 65.25C81.1428 67.62 81.9678 68.805 83.6178 68.805C84.4278 68.805 85.0578 68.52 85.5078 67.95C85.9578 67.35 86.1828 66.45 86.1828 65.25C86.1828 62.91 85.3278 61.74 83.6178 61.74ZM96.2628 83.205C96.2628 80.895 96.9228 79.11 98.2428 77.85C99.5928 76.56 101.318 75.915 103.418 75.915C105.518 75.915 107.213 76.56 108.503 77.85C109.823 79.11 110.483 80.895 110.483 83.205C110.483 85.515 109.823 87.315 108.503 88.605C107.213 89.895 105.518 90.54 103.418 90.54C101.288 90.54 99.5628 89.895 98.2428 88.605C96.9228 87.315 96.2628 85.515 96.2628 83.205ZM103.373 79.695C101.663 79.695 100.808 80.865 100.808 83.205C100.808 85.575 101.663 86.76 103.373 86.76C105.053 86.76 105.893 85.575 105.893 83.205C105.893 80.865 105.053 79.695 103.373 79.695Z" fill="white" fill-opacity="0.55"/>
</g>
</g>
</g>
<defs>
<filter id="filter0_ii_4_922" x="0" y="2.48145" width="128" height="143.037" filterUnits="userSpaceOnUse" color-interpolation-filters="sRGB">
<feFlood flood-opacity="0" result="BackgroundImageFix"/>
<feBlend mode="normal" in="SourceGraphic" in2="BackgroundImageFix" result="shape"/>
<feColorMatrix in="SourceAlpha" type="matrix" values="0 0 0 0 0 0 0 0 0 0 0 0 0 0 0 0 0 0 127 0" result="hardAlpha"/>
<feOffset dy="4"/>
<feComposite in2="hardAlpha" operator="arithmetic" k2="-1" k3="1"/>
<feColorMatrix type="matrix" values="0 0 0 0 1 0 0 0 0 1 0 0 0 0 1 0 0 0 0.5 0"/>
<feBlend mode="overlay" in2="shape" result="effect1_innerShadow_4_922"/>
<feColorMatrix in="SourceAlpha" type="matrix" values="0 0 0 0 0 0 0 0 0 0 0 0 0 0 0 0 0 0 127 0" result="hardAlpha"/>
<feOffset dy="-4"/>
<feComposite in2="hardAlpha" operator="arithmetic" k2="-1" k3="1"/>
<feColorMatrix type="matrix" values="0 0 0 0 0.0942307 0 0 0 0 0.0942307 0 0 0 0 0.0942307 0 0 0 0.5 0"/>
<feBlend mode="overlay" in2="effect1_innerShadow_4_922" result="effect2_innerShadow_4_922"/>
</filter>
<filter id="filter1_f_4_922" x="-9" y="16" width="221" height="202" filterUnits="userSpaceOnUse" color-interpolation-filters="sRGB">
<feFlood flood-opacity="0" result="BackgroundImageFix"/>
<feBlend mode="normal" in="SourceGraphic" in2="BackgroundImageFix" result="shape"/>
<feGaussianBlur stdDeviation="32" result="effect1_foregroundBlur_4_922"/>
</filter>
<filter id="filter2_f_4_922" x="-87" y="-72" width="227" height="206" filterUnits="userSpaceOnUse" color-interpolation-filters="sRGB">
<feFlood flood-opacity="0" result="BackgroundImageFix"/>
<feBlend mode="normal" in="SourceGraphic" in2="BackgroundImageFix" result="shape"/>
<feGaussianBlur stdDeviation="32" result="effect1_foregroundBlur_4_922"/>
</filter>
<filter id="filter3_d_4_922" x="14.1152" y="56.5649" width="100.367" height="41.9751" filterUnits="userSpaceOnUse" color-interpolation-filters="sRGB">
<feFlood flood-opacity="0" result="BackgroundImageFix"/>
<feColorMatrix in="SourceAlpha" type="matrix" values="0 0 0 0 0 0 0 0 0 0 0 0 0 0 0 0 0 0 127 0" result="hardAlpha"/>
<feOffset dy="4"/>
<feGaussianBlur stdDeviation="2"/>
<feComposite in2="hardAlpha" operator="out"/>
<feColorMatrix type="matrix" values="0 0 0 0 0 0 0 0 0 0 0 0 0 0 0 0 0 0 0.25 0"/>
<feBlend mode="normal" in2="BackgroundImageFix" result="effect1_dropShadow_4_922"/>
<feBlend mode="normal" in="SourceGraphic" in2="effect1_dropShadow_4_922" result="shape"/>
</filter>
<linearGradient id="paint0_linear_4_922" x1="128" y1="13.6229" x2="-14.3355" y2="114.062" gradientUnits="userSpaceOnUse">
<stop stop-color="#9FB5D8"/>
<stop offset="1" stop-color="#3A3F47"/>
</linearGradient>
<clipPath id="clip0_4_922">
<rect width="128" height="148" fill="white"/>
</clipPath>
</defs>
</svg>
