<svg width="128" height="148" viewBox="0 0 128 148" fill="none" xmlns="http://www.w3.org/2000/svg">
<g filter="url(#filter0_ii_4_923)">
<mask id="mask0_4_923" style="mask-type:alpha" maskUnits="userSpaceOnUse" x="0" y="2" width="128" height="144">
<path d="M55.9919 4.62966C60.9464 1.76533 67.0535 1.76533 72.008 4.62965L120.008 32.3796C124.954 35.239 128 40.5185 128 46.2314V101.769C128 107.482 124.954 112.761 120.008 115.62L72.008 143.37C67.0535 146.235 60.9465 146.235 55.9919 143.37L7.99196 115.62C3.04608 112.761 0 107.482 0 101.769V46.2314C0 40.5185 3.04607 35.239 7.99195 32.3797L55.9919 4.62966Z" fill="#D9D9D9"/>
</mask>
<g mask="url(#mask0_4_923)">
<g clip-path="url(#clip0_4_923)">
<rect width="128" height="148" fill="white"/>
<rect width="128" height="148" fill="url(#paint0_linear_4_923)"/>
<g filter="url(#filter1_f_4_923)" style="mix-blend-mode:soft-light">
<ellipse cx="98.5" cy="117.5" rx="27.5" ry="20.5" fill="#9919D9"/>
</g>
<g filter="url(#filter2_f_4_923)" style="mix-blend-mode:soft-light">
<ellipse cx="19.5" cy="33.5" rx="27.5" ry="20.5" fill="#BFD919"/>
</g>
<g filter="url(#filter3_d_4_923)" style="mix-blend-mode:overlay">
<path d="M35.8022 65.385C35.5022 64.125 34.9772 63.18 34.2272 62.55C33.5072 61.92 32.4572 61.605 31.0772 61.605C29.0072 61.605 27.4772 62.445 26.4872 64.125C25.5272 65.775 25.0322 68.475 25.0022 72.225C25.7222 71.025 26.7722 70.095 28.1522 69.435C29.5322 68.745 31.0322 68.4 32.6522 68.4C34.6022 68.4 36.3272 68.82 37.8272 69.66C39.3272 70.5 40.4972 71.73 41.3372 73.35C42.1772 74.94 42.5972 76.86 42.5972 79.11C42.5972 81.24 42.1622 83.145 41.2922 84.825C40.4522 86.475 39.2072 87.765 37.5572 88.695C35.9072 89.625 33.9422 90.09 31.6622 90.09C28.5422 90.09 26.0822 89.4 24.2822 88.02C22.5122 86.64 21.2672 84.72 20.5472 82.26C19.8572 79.77 19.5122 76.71 19.5122 73.08C19.5122 67.59 20.4572 63.45 22.3472 60.66C24.2372 57.84 27.2222 56.43 31.3022 56.43C34.4522 56.43 36.8972 57.285 38.6372 58.995C40.3772 60.705 41.3822 62.835 41.6522 65.385H35.8022ZM31.2122 73.575C29.6222 73.575 28.2872 74.04 27.2072 74.97C26.1272 75.9 25.5872 77.25 25.5872 79.02C25.5872 80.79 26.0822 82.185 27.0722 83.205C28.0922 84.225 29.5172 84.735 31.3472 84.735C32.9672 84.735 34.2422 84.24 35.1722 83.25C36.1322 82.26 36.6122 80.925 36.6122 79.245C36.6122 77.505 36.1472 76.125 35.2172 75.105C34.3172 74.085 32.9822 73.575 31.2122 73.575ZM47.5764 73.17C47.5764 67.98 48.5064 63.915 50.3664 60.975C52.2564 58.035 55.3764 56.565 59.7264 56.565C64.0764 56.565 67.1814 58.035 69.0414 60.975C70.9314 63.915 71.8764 67.98 71.8764 73.17C71.8764 78.39 70.9314 82.485 69.0414 85.455C67.1814 88.425 64.0764 89.91 59.7264 89.91C55.3764 89.91 52.2564 88.425 50.3664 85.455C48.5064 82.485 47.5764 78.39 47.5764 73.17ZM65.6664 73.17C65.6664 70.95 65.5164 69.09 65.2164 67.59C64.9464 66.06 64.3764 64.815 63.5064 63.855C62.6664 62.895 61.4064 62.415 59.7264 62.415C58.0464 62.415 56.7714 62.895 55.9014 63.855C55.0614 64.815 54.4914 66.06 54.1914 67.59C53.9214 69.09 53.7864 70.95 53.7864 73.17C53.7864 75.45 53.9214 77.37 54.1914 78.93C54.4614 80.46 55.0314 81.705 55.9014 82.665C56.7714 83.595 58.0464 84.06 59.7264 84.06C61.4064 84.06 62.6814 83.595 63.5514 82.665C64.4214 81.705 64.9914 80.46 65.2614 78.93C65.5314 77.37 65.6664 75.45 65.6664 73.17ZM75.9482 65.25C75.9482 62.97 76.6082 61.185 77.9282 59.895C79.2782 58.605 81.0032 57.96 83.1032 57.96C85.2032 57.96 86.9132 58.605 88.2332 59.895C89.5832 61.185 90.2582 62.97 90.2582 65.25C90.2582 67.56 89.5832 69.36 88.2332 70.65C86.9132 71.94 85.2032 72.585 83.1032 72.585C81.0032 72.585 79.2782 71.94 77.9282 70.65C76.6082 69.36 75.9482 67.56 75.9482 65.25ZM104.838 58.5L87.1532 90H81.0332L98.6732 58.5H104.838ZM83.0582 61.74C81.4082 61.74 80.5832 62.91 80.5832 65.25C80.5832 67.62 81.4082 68.805 83.0582 68.805C83.8682 68.805 84.4982 68.52 84.9482 67.95C85.3982 67.35 85.6232 66.45 85.6232 65.25C85.6232 62.91 84.7682 61.74 83.0582 61.74ZM95.7032 83.205C95.7032 80.895 96.3632 79.11 97.6832 77.85C99.0332 76.56 100.758 75.915 102.858 75.915C104.958 75.915 106.653 76.56 107.943 77.85C109.263 79.11 109.923 80.895 109.923 83.205C109.923 85.515 109.263 87.315 107.943 88.605C106.653 89.895 104.958 90.54 102.858 90.54C100.728 90.54 99.0032 89.895 97.6832 88.605C96.3632 87.315 95.7032 85.515 95.7032 83.205ZM102.813 79.695C101.103 79.695 100.248 80.865 100.248 83.205C100.248 85.575 101.103 86.76 102.813 86.76C104.493 86.76 105.333 85.575 105.333 83.205C105.333 80.865 104.493 79.695 102.813 79.695Z" fill="white"/>
</g>
<path d="M35.8022 65.385C35.5022 64.125 34.9772 63.18 34.2272 62.55C33.5072 61.92 32.4572 61.605 31.0772 61.605C29.0072 61.605 27.4772 62.445 26.4872 64.125C25.5272 65.775 25.0322 68.475 25.0022 72.225C25.7222 71.025 26.7722 70.095 28.1522 69.435C29.5322 68.745 31.0322 68.4 32.6522 68.4C34.6022 68.4 36.3272 68.82 37.8272 69.66C39.3272 70.5 40.4972 71.73 41.3372 73.35C42.1772 74.94 42.5972 76.86 42.5972 79.11C42.5972 81.24 42.1622 83.145 41.2922 84.825C40.4522 86.475 39.2072 87.765 37.5572 88.695C35.9072 89.625 33.9422 90.09 31.6622 90.09C28.5422 90.09 26.0822 89.4 24.2822 88.02C22.5122 86.64 21.2672 84.72 20.5472 82.26C19.8572 79.77 19.5122 76.71 19.5122 73.08C19.5122 67.59 20.4572 63.45 22.3472 60.66C24.2372 57.84 27.2222 56.43 31.3022 56.43C34.4522 56.43 36.8972 57.285 38.6372 58.995C40.3772 60.705 41.3822 62.835 41.6522 65.385H35.8022ZM31.2122 73.575C29.6222 73.575 28.2872 74.04 27.2072 74.97C26.1272 75.9 25.5872 77.25 25.5872 79.02C25.5872 80.79 26.0822 82.185 27.0722 83.205C28.0922 84.225 29.5172 84.735 31.3472 84.735C32.9672 84.735 34.2422 84.24 35.1722 83.25C36.1322 82.26 36.6122 80.925 36.6122 79.245C36.6122 77.505 36.1472 76.125 35.2172 75.105C34.3172 74.085 32.9822 73.575 31.2122 73.575ZM47.5764 73.17C47.5764 67.98 48.5064 63.915 50.3664 60.975C52.2564 58.035 55.3764 56.565 59.7264 56.565C64.0764 56.565 67.1814 58.035 69.0414 60.975C70.9314 63.915 71.8764 67.98 71.8764 73.17C71.8764 78.39 70.9314 82.485 69.0414 85.455C67.1814 88.425 64.0764 89.91 59.7264 89.91C55.3764 89.91 52.2564 88.425 50.3664 85.455C48.5064 82.485 47.5764 78.39 47.5764 73.17ZM65.6664 73.17C65.6664 70.95 65.5164 69.09 65.2164 67.59C64.9464 66.06 64.3764 64.815 63.5064 63.855C62.6664 62.895 61.4064 62.415 59.7264 62.415C58.0464 62.415 56.7714 62.895 55.9014 63.855C55.0614 64.815 54.4914 66.06 54.1914 67.59C53.9214 69.09 53.7864 70.95 53.7864 73.17C53.7864 75.45 53.9214 77.37 54.1914 78.93C54.4614 80.46 55.0314 81.705 55.9014 82.665C56.7714 83.595 58.0464 84.06 59.7264 84.06C61.4064 84.06 62.6814 83.595 63.5514 82.665C64.4214 81.705 64.9914 80.46 65.2614 78.93C65.5314 77.37 65.6664 75.45 65.6664 73.17ZM75.9482 65.25C75.9482 62.97 76.6082 61.185 77.9282 59.895C79.2782 58.605 81.0032 57.96 83.1032 57.96C85.2032 57.96 86.9132 58.605 88.2332 59.895C89.5832 61.185 90.2582 62.97 90.2582 65.25C90.2582 67.56 89.5832 69.36 88.2332 70.65C86.9132 71.94 85.2032 72.585 83.1032 72.585C81.0032 72.585 79.2782 71.94 77.9282 70.65C76.6082 69.36 75.9482 67.56 75.9482 65.25ZM104.838 58.5L87.1532 90H81.0332L98.6732 58.5H104.838ZM83.0582 61.74C81.4082 61.74 80.5832 62.91 80.5832 65.25C80.5832 67.62 81.4082 68.805 83.0582 68.805C83.8682 68.805 84.4982 68.52 84.9482 67.95C85.3982 67.35 85.6232 66.45 85.6232 65.25C85.6232 62.91 84.7682 61.74 83.0582 61.74ZM95.7032 83.205C95.7032 80.895 96.3632 79.11 97.6832 77.85C99.0332 76.56 100.758 75.915 102.858 75.915C104.958 75.915 106.653 76.56 107.943 77.85C109.263 79.11 109.923 80.895 109.923 83.205C109.923 85.515 109.263 87.315 107.943 88.605C106.653 89.895 104.958 90.54 102.858 90.54C100.728 90.54 99.0032 89.895 97.6832 88.605C96.3632 87.315 95.7032 85.515 95.7032 83.205ZM102.813 79.695C101.103 79.695 100.248 80.865 100.248 83.205C100.248 85.575 101.103 86.76 102.813 86.76C104.493 86.76 105.333 85.575 105.333 83.205C105.333 80.865 104.493 79.695 102.813 79.695Z" fill="white" fill-opacity="0.55"/>
</g>
</g>
</g>
<defs>
<filter id="filter0_ii_4_923" x="0" y="2.48145" width="128" height="143.037" filterUnits="userSpaceOnUse" color-interpolation-filters="sRGB">
<feFlood flood-opacity="0" result="BackgroundImageFix"/>
<feBlend mode="normal" in="SourceGraphic" in2="BackgroundImageFix" result="shape"/>
<feColorMatrix in="SourceAlpha" type="matrix" values="0 0 0 0 0 0 0 0 0 0 0 0 0 0 0 0 0 0 127 0" result="hardAlpha"/>
<feOffset dy="4"/>
<feComposite in2="hardAlpha" operator="arithmetic" k2="-1" k3="1"/>
<feColorMatrix type="matrix" values="0 0 0 0 1 0 0 0 0 1 0 0 0 0 1 0 0 0 0.5 0"/>
<feBlend mode="overlay" in2="shape" result="effect1_innerShadow_4_923"/>
<feColorMatrix in="SourceAlpha" type="matrix" values="0 0 0 0 0 0 0 0 0 0 0 0 0 0 0 0 0 0 127 0" result="hardAlpha"/>
<feOffset dy="-4"/>
<feComposite in2="hardAlpha" operator="arithmetic" k2="-1" k3="1"/>
<feColorMatrix type="matrix" values="0 0 0 0 0.0942307 0 0 0 0 0.0942307 0 0 0 0 0.0942307 0 0 0 0.5 0"/>
<feBlend mode="overlay" in2="effect1_innerShadow_4_923" result="effect2_innerShadow_4_923"/>
</filter>
<filter id="filter1_f_4_923" x="7" y="33" width="183" height="169" filterUnits="userSpaceOnUse" color-interpolation-filters="sRGB">
<feFlood flood-opacity="0" result="BackgroundImageFix"/>
<feBlend mode="normal" in="SourceGraphic" in2="BackgroundImageFix" result="shape"/>
<feGaussianBlur stdDeviation="32" result="effect1_foregroundBlur_4_923"/>
</filter>
<filter id="filter2_f_4_923" x="-72" y="-51" width="183" height="169" filterUnits="userSpaceOnUse" color-interpolation-filters="sRGB">
<feFlood flood-opacity="0" result="BackgroundImageFix"/>
<feBlend mode="normal" in="SourceGraphic" in2="BackgroundImageFix" result="shape"/>
<feGaussianBlur stdDeviation="32" result="effect1_foregroundBlur_4_923"/>
</filter>
<filter id="filter3_d_4_923" x="15.5127" y="56.4302" width="98.4102" height="42.1099" filterUnits="userSpaceOnUse" color-interpolation-filters="sRGB">
<feFlood flood-opacity="0" result="BackgroundImageFix"/>
<feColorMatrix in="SourceAlpha" type="matrix" values="0 0 0 0 0 0 0 0 0 0 0 0 0 0 0 0 0 0 127 0" result="hardAlpha"/>
<feOffset dy="4"/>
<feGaussianBlur stdDeviation="2"/>
<feComposite in2="hardAlpha" operator="out"/>
<feColorMatrix type="matrix" values="0 0 0 0 0 0 0 0 0 0 0 0 0 0 0 0 0 0 0.25 0"/>
<feBlend mode="normal" in2="BackgroundImageFix" result="effect1_dropShadow_4_923"/>
<feBlend mode="normal" in="SourceGraphic" in2="effect1_dropShadow_4_923" result="shape"/>
</filter>
<linearGradient id="paint0_linear_4_923" x1="128" y1="13.6229" x2="-14.3355" y2="114.062" gradientUnits="userSpaceOnUse">
<stop stop-color="#5AFFC3"/>
<stop offset="1" stop-color="#204F3E"/>
</linearGradient>
<clipPath id="clip0_4_923">
<rect width="128" height="148" fill="white"/>
</clipPath>
</defs>
</svg>
