<svg width="128" height="148" viewBox="0 0 128 148" fill="none" xmlns="http://www.w3.org/2000/svg">
<g filter="url(#filter0_ii_4_924)">
<mask id="mask0_4_924" style="mask-type:alpha" maskUnits="userSpaceOnUse" x="0" y="2" width="128" height="144">
<path d="M55.9919 4.62966C60.9464 1.76533 67.0535 1.76533 72.008 4.62965L120.008 32.3796C124.954 35.239 128 40.5185 128 46.2314V101.769C128 107.482 124.954 112.761 120.008 115.62L72.008 143.37C67.0535 146.235 60.9465 146.235 55.9919 143.37L7.99196 115.62C3.04608 112.761 0 107.482 0 101.769V46.2314C0 40.5185 3.04607 35.239 7.99195 32.3797L55.9919 4.62966Z" fill="#D9D9D9"/>
</mask>
<g mask="url(#mask0_4_924)">
<g clip-path="url(#clip0_4_924)">
<rect width="128" height="148" fill="white"/>
<rect width="128" height="148" fill="url(#paint0_linear_4_924)"/>
<g filter="url(#filter1_f_4_924)" style="mix-blend-mode:soft-light">
<ellipse cx="101" cy="116" rx="27" ry="22" fill="#9919D9"/>
</g>
<g filter="url(#filter2_f_4_924)" style="mix-blend-mode:soft-light">
<ellipse cx="24" cy="28" rx="27" ry="22" fill="#BFD919"/>
</g>
<g filter="url(#filter3_d_4_924)" style="mix-blend-mode:overlay">
<path d="M24.2163 72.63C21.2163 71.07 19.7163 68.655 19.7163 65.385C19.7163 63.765 20.1213 62.295 20.9313 60.975C21.7713 59.625 23.0163 58.56 24.6663 57.78C26.3463 56.97 28.3863 56.565 30.7863 56.565C33.1863 56.565 35.2113 56.97 36.8613 57.78C38.5413 58.56 39.7863 59.625 40.5963 60.975C41.4363 62.295 41.8563 63.765 41.8563 65.385C41.8563 67.035 41.4513 68.49 40.6413 69.75C39.8313 70.98 38.7513 71.94 37.4013 72.63C39.0513 73.35 40.3413 74.4 41.2713 75.78C42.2013 77.16 42.6663 78.795 42.6663 80.685C42.6663 82.725 42.1413 84.51 41.0913 86.04C40.0713 87.54 38.6613 88.695 36.8613 89.505C35.0613 90.315 33.0363 90.72 30.7863 90.72C28.5363 90.72 26.5113 90.315 24.7113 89.505C22.9413 88.695 21.5313 87.54 20.4813 86.04C19.4613 84.51 18.9513 82.725 18.9513 80.685C18.9513 78.795 19.4163 77.16 20.3463 75.78C21.2763 74.37 22.5663 73.32 24.2163 72.63ZM35.7363 66.285C35.7363 64.815 35.2863 63.675 34.3863 62.865C33.5163 62.055 32.3163 61.65 30.7863 61.65C29.2863 61.65 28.0863 62.055 27.1863 62.865C26.3163 63.675 25.8813 64.83 25.8813 66.33C25.8813 67.68 26.3313 68.76 27.2313 69.57C28.1613 70.38 29.3463 70.785 30.7863 70.785C32.2263 70.785 33.4113 70.38 34.3413 69.57C35.2713 68.73 35.7363 67.635 35.7363 66.285ZM30.7863 75.375C29.0763 75.375 27.6813 75.81 26.6013 76.68C25.5513 77.55 25.0263 78.795 25.0263 80.415C25.0263 81.915 25.5363 83.145 26.5563 84.105C27.6063 85.035 29.0163 85.5 30.7863 85.5C32.5563 85.5 33.9513 85.02 34.9713 84.06C35.9913 83.1 36.5013 81.885 36.5013 80.415C36.5013 78.825 35.9763 77.595 34.9263 76.725C33.8763 75.825 32.4963 75.375 30.7863 75.375ZM47.6423 73.17C47.6423 67.98 48.5723 63.915 50.4323 60.975C52.3223 58.035 55.4423 56.565 59.7923 56.565C64.1423 56.565 67.2473 58.035 69.1073 60.975C70.9973 63.915 71.9423 67.98 71.9423 73.17C71.9423 78.39 70.9973 82.485 69.1073 85.455C67.2473 88.425 64.1423 89.91 59.7923 89.91C55.4423 89.91 52.3223 88.425 50.4323 85.455C48.5723 82.485 47.6423 78.39 47.6423 73.17ZM65.7323 73.17C65.7323 70.95 65.5823 69.09 65.2823 67.59C65.0123 66.06 64.4423 64.815 63.5723 63.855C62.7323 62.895 61.4723 62.415 59.7923 62.415C58.1123 62.415 56.8373 62.895 55.9673 63.855C55.1273 64.815 54.5573 66.06 54.2573 67.59C53.9873 69.09 53.8523 70.95 53.8523 73.17C53.8523 75.45 53.9873 77.37 54.2573 78.93C54.5273 80.46 55.0973 81.705 55.9673 82.665C56.8373 83.595 58.1123 84.06 59.7923 84.06C61.4723 84.06 62.7473 83.595 63.6173 82.665C64.4873 81.705 65.0573 80.46 65.3273 78.93C65.5973 77.37 65.7323 75.45 65.7323 73.17ZM76.0141 65.25C76.0141 62.97 76.6741 61.185 77.9941 59.895C79.3441 58.605 81.0691 57.96 83.1691 57.96C85.2691 57.96 86.9791 58.605 88.2991 59.895C89.6491 61.185 90.3241 62.97 90.3241 65.25C90.3241 67.56 89.6491 69.36 88.2991 70.65C86.9791 71.94 85.2691 72.585 83.1691 72.585C81.0691 72.585 79.3441 71.94 77.9941 70.65C76.6741 69.36 76.0141 67.56 76.0141 65.25ZM104.904 58.5L87.2191 90H81.0991L98.7391 58.5H104.904ZM83.1241 61.74C81.4741 61.74 80.6491 62.91 80.6491 65.25C80.6491 67.62 81.4741 68.805 83.1241 68.805C83.9341 68.805 84.5641 68.52 85.0141 67.95C85.4641 67.35 85.6891 66.45 85.6891 65.25C85.6891 62.91 84.8341 61.74 83.1241 61.74ZM95.7691 83.205C95.7691 80.895 96.4291 79.11 97.7491 77.85C99.0991 76.56 100.824 75.915 102.924 75.915C105.024 75.915 106.719 76.56 108.009 77.85C109.329 79.11 109.989 80.895 109.989 83.205C109.989 85.515 109.329 87.315 108.009 88.605C106.719 89.895 105.024 90.54 102.924 90.54C100.794 90.54 99.0691 89.895 97.7491 88.605C96.4291 87.315 95.7691 85.515 95.7691 83.205ZM102.879 79.695C101.169 79.695 100.314 80.865 100.314 83.205C100.314 85.575 101.169 86.76 102.879 86.76C104.559 86.76 105.399 85.575 105.399 83.205C105.399 80.865 104.559 79.695 102.879 79.695Z" fill="white"/>
</g>
<path d="M24.2163 72.63C21.2163 71.07 19.7163 68.655 19.7163 65.385C19.7163 63.765 20.1213 62.295 20.9313 60.975C21.7713 59.625 23.0163 58.56 24.6663 57.78C26.3463 56.97 28.3863 56.565 30.7863 56.565C33.1863 56.565 35.2113 56.97 36.8613 57.78C38.5413 58.56 39.7863 59.625 40.5963 60.975C41.4363 62.295 41.8563 63.765 41.8563 65.385C41.8563 67.035 41.4513 68.49 40.6413 69.75C39.8313 70.98 38.7513 71.94 37.4013 72.63C39.0513 73.35 40.3413 74.4 41.2713 75.78C42.2013 77.16 42.6663 78.795 42.6663 80.685C42.6663 82.725 42.1413 84.51 41.0913 86.04C40.0713 87.54 38.6613 88.695 36.8613 89.505C35.0613 90.315 33.0363 90.72 30.7863 90.72C28.5363 90.72 26.5113 90.315 24.7113 89.505C22.9413 88.695 21.5313 87.54 20.4813 86.04C19.4613 84.51 18.9513 82.725 18.9513 80.685C18.9513 78.795 19.4163 77.16 20.3463 75.78C21.2763 74.37 22.5663 73.32 24.2163 72.63ZM35.7363 66.285C35.7363 64.815 35.2863 63.675 34.3863 62.865C33.5163 62.055 32.3163 61.65 30.7863 61.65C29.2863 61.65 28.0863 62.055 27.1863 62.865C26.3163 63.675 25.8813 64.83 25.8813 66.33C25.8813 67.68 26.3313 68.76 27.2313 69.57C28.1613 70.38 29.3463 70.785 30.7863 70.785C32.2263 70.785 33.4113 70.38 34.3413 69.57C35.2713 68.73 35.7363 67.635 35.7363 66.285ZM30.7863 75.375C29.0763 75.375 27.6813 75.81 26.6013 76.68C25.5513 77.55 25.0263 78.795 25.0263 80.415C25.0263 81.915 25.5363 83.145 26.5563 84.105C27.6063 85.035 29.0163 85.5 30.7863 85.5C32.5563 85.5 33.9513 85.02 34.9713 84.06C35.9913 83.1 36.5013 81.885 36.5013 80.415C36.5013 78.825 35.9763 77.595 34.9263 76.725C33.8763 75.825 32.4963 75.375 30.7863 75.375ZM47.6423 73.17C47.6423 67.98 48.5723 63.915 50.4323 60.975C52.3223 58.035 55.4423 56.565 59.7923 56.565C64.1423 56.565 67.2473 58.035 69.1073 60.975C70.9973 63.915 71.9423 67.98 71.9423 73.17C71.9423 78.39 70.9973 82.485 69.1073 85.455C67.2473 88.425 64.1423 89.91 59.7923 89.91C55.4423 89.91 52.3223 88.425 50.4323 85.455C48.5723 82.485 47.6423 78.39 47.6423 73.17ZM65.7323 73.17C65.7323 70.95 65.5823 69.09 65.2823 67.59C65.0123 66.06 64.4423 64.815 63.5723 63.855C62.7323 62.895 61.4723 62.415 59.7923 62.415C58.1123 62.415 56.8373 62.895 55.9673 63.855C55.1273 64.815 54.5573 66.06 54.2573 67.59C53.9873 69.09 53.8523 70.95 53.8523 73.17C53.8523 75.45 53.9873 77.37 54.2573 78.93C54.5273 80.46 55.0973 81.705 55.9673 82.665C56.8373 83.595 58.1123 84.06 59.7923 84.06C61.4723 84.06 62.7473 83.595 63.6173 82.665C64.4873 81.705 65.0573 80.46 65.3273 78.93C65.5973 77.37 65.7323 75.45 65.7323 73.17ZM76.0141 65.25C76.0141 62.97 76.6741 61.185 77.9941 59.895C79.3441 58.605 81.0691 57.96 83.1691 57.96C85.2691 57.96 86.9791 58.605 88.2991 59.895C89.6491 61.185 90.3241 62.97 90.3241 65.25C90.3241 67.56 89.6491 69.36 88.2991 70.65C86.9791 71.94 85.2691 72.585 83.1691 72.585C81.0691 72.585 79.3441 71.94 77.9941 70.65C76.6741 69.36 76.0141 67.56 76.0141 65.25ZM104.904 58.5L87.2191 90H81.0991L98.7391 58.5H104.904ZM83.1241 61.74C81.4741 61.74 80.6491 62.91 80.6491 65.25C80.6491 67.62 81.4741 68.805 83.1241 68.805C83.9341 68.805 84.5641 68.52 85.0141 67.95C85.4641 67.35 85.6891 66.45 85.6891 65.25C85.6891 62.91 84.8341 61.74 83.1241 61.74ZM95.7691 83.205C95.7691 80.895 96.4291 79.11 97.7491 77.85C99.0991 76.56 100.824 75.915 102.924 75.915C105.024 75.915 106.719 76.56 108.009 77.85C109.329 79.11 109.989 80.895 109.989 83.205C109.989 85.515 109.329 87.315 108.009 88.605C106.719 89.895 105.024 90.54 102.924 90.54C100.794 90.54 99.0691 89.895 97.7491 88.605C96.4291 87.315 95.7691 85.515 95.7691 83.205ZM102.879 79.695C101.169 79.695 100.314 80.865 100.314 83.205C100.314 85.575 101.169 86.76 102.879 86.76C104.559 86.76 105.399 85.575 105.399 83.205C105.399 80.865 104.559 79.695 102.879 79.695Z" fill="white" fill-opacity="0.55"/>
</g>
</g>
</g>
<defs>
<filter id="filter0_ii_4_924" x="0" y="2.48145" width="128" height="143.037" filterUnits="userSpaceOnUse" color-interpolation-filters="sRGB">
<feFlood flood-opacity="0" result="BackgroundImageFix"/>
<feBlend mode="normal" in="SourceGraphic" in2="BackgroundImageFix" result="shape"/>
<feColorMatrix in="SourceAlpha" type="matrix" values="0 0 0 0 0 0 0 0 0 0 0 0 0 0 0 0 0 0 127 0" result="hardAlpha"/>
<feOffset dy="4"/>
<feComposite in2="hardAlpha" operator="arithmetic" k2="-1" k3="1"/>
<feColorMatrix type="matrix" values="0 0 0 0 1 0 0 0 0 1 0 0 0 0 1 0 0 0 0.5 0"/>
<feBlend mode="overlay" in2="shape" result="effect1_innerShadow_4_924"/>
<feColorMatrix in="SourceAlpha" type="matrix" values="0 0 0 0 0 0 0 0 0 0 0 0 0 0 0 0 0 0 127 0" result="hardAlpha"/>
<feOffset dy="-4"/>
<feComposite in2="hardAlpha" operator="arithmetic" k2="-1" k3="1"/>
<feColorMatrix type="matrix" values="0 0 0 0 0.0942307 0 0 0 0 0.0942307 0 0 0 0 0.0942307 0 0 0 0.5 0"/>
<feBlend mode="overlay" in2="effect1_innerShadow_4_924" result="effect2_innerShadow_4_924"/>
</filter>
<filter id="filter1_f_4_924" x="8" y="28" width="186" height="176" filterUnits="userSpaceOnUse" color-interpolation-filters="sRGB">
<feFlood flood-opacity="0" result="BackgroundImageFix"/>
<feBlend mode="normal" in="SourceGraphic" in2="BackgroundImageFix" result="shape"/>
<feGaussianBlur stdDeviation="33" result="effect1_foregroundBlur_4_924"/>
</filter>
<filter id="filter2_f_4_924" x="-69" y="-60" width="186" height="176" filterUnits="userSpaceOnUse" color-interpolation-filters="sRGB">
<feFlood flood-opacity="0" result="BackgroundImageFix"/>
<feBlend mode="normal" in="SourceGraphic" in2="BackgroundImageFix" result="shape"/>
<feGaussianBlur stdDeviation="33" result="effect1_foregroundBlur_4_924"/>
</filter>
<filter id="filter3_d_4_924" x="14.9512" y="56.5649" width="99.0381" height="42.1553" filterUnits="userSpaceOnUse" color-interpolation-filters="sRGB">
<feFlood flood-opacity="0" result="BackgroundImageFix"/>
<feColorMatrix in="SourceAlpha" type="matrix" values="0 0 0 0 0 0 0 0 0 0 0 0 0 0 0 0 0 0 127 0" result="hardAlpha"/>
<feOffset dy="4"/>
<feGaussianBlur stdDeviation="2"/>
<feComposite in2="hardAlpha" operator="out"/>
<feColorMatrix type="matrix" values="0 0 0 0 0 0 0 0 0 0 0 0 0 0 0 0 0 0 0.25 0"/>
<feBlend mode="normal" in2="BackgroundImageFix" result="effect1_dropShadow_4_924"/>
<feBlend mode="normal" in="SourceGraphic" in2="effect1_dropShadow_4_924" result="shape"/>
</filter>
<linearGradient id="paint0_linear_4_924" x1="128" y1="13.6229" x2="-14.3355" y2="114.062" gradientUnits="userSpaceOnUse">
<stop stop-color="#65C4FF"/>
<stop offset="1" stop-color="#0E507A"/>
</linearGradient>
<clipPath id="clip0_4_924">
<rect width="128" height="148" fill="white"/>
</clipPath>
</defs>
</svg>
