<svg width="128" height="148" viewBox="0 0 128 148" fill="none" xmlns="http://www.w3.org/2000/svg">
<g filter="url(#filter0_ii_4_927)">
<mask id="mask0_4_927" style="mask-type:alpha" maskUnits="userSpaceOnUse" x="0" y="2" width="128" height="144">
<path d="M55.9919 4.62966C60.9464 1.76533 67.0535 1.76533 72.008 4.62965L120.008 32.3796C124.954 35.239 128 40.5185 128 46.2314V101.769C128 107.482 124.954 112.761 120.008 115.62L72.008 143.37C67.0535 146.235 60.9465 146.235 55.9919 143.37L7.99196 115.62C3.04608 112.761 0 107.482 0 101.769V46.2314C0 40.5185 3.04607 35.239 7.99195 32.3797L55.9919 4.62966Z" fill="#D9D9D9"/>
</mask>
<g mask="url(#mask0_4_927)">
<g clip-path="url(#clip0_4_927)">
<rect width="128" height="174" transform="translate(0 -13)" fill="white"/>
<rect width="128" height="174" transform="translate(0 -13)" fill="url(#paint0_linear_4_927)"/>
<g filter="url(#filter1_f_4_927)" style="mix-blend-mode:soft-light">
<ellipse cx="93.5" cy="117" rx="24.5" ry="21" fill="#9919D9"/>
</g>
<g filter="url(#filter2_f_4_927)" style="mix-blend-mode:soft-light">
<ellipse cx="24.5" cy="31" rx="24.5" ry="21" fill="#BFD919"/>
</g>
<g filter="url(#filter3_d_4_927)" style="mix-blend-mode:overlay">
<path d="M25.675 80.775C25.915 82.095 26.455 83.115 27.295 83.835C28.165 84.525 29.32 84.87 30.76 84.87C32.62 84.87 33.97 84.105 34.81 82.575C35.65 81.015 36.07 78.405 36.07 74.745C35.38 75.705 34.405 76.455 33.145 76.995C31.915 77.535 30.58 77.805 29.14 77.805C27.22 77.805 25.48 77.415 23.92 76.635C22.39 75.825 21.175 74.64 20.275 73.08C19.375 71.49 18.925 69.57 18.925 67.32C18.925 63.99 19.915 61.35 21.895 59.4C23.875 57.42 26.575 56.43 29.995 56.43C34.255 56.43 37.255 57.795 38.995 60.525C40.765 63.255 41.65 67.365 41.65 72.855C41.65 76.755 41.305 79.95 40.615 82.44C39.955 84.93 38.8 86.82 37.15 88.11C35.53 89.4 33.31 90.045 30.49 90.045C28.27 90.045 26.38 89.625 24.82 88.785C23.26 87.915 22.06 86.79 21.22 85.41C20.41 84 19.945 82.455 19.825 80.775H25.675ZM30.445 72.675C32.005 72.675 33.235 72.195 34.135 71.235C35.035 70.275 35.485 68.985 35.485 67.365C35.485 65.595 35.005 64.23 34.045 63.27C33.115 62.28 31.84 61.785 30.22 61.785C28.6 61.785 27.31 62.295 26.35 63.315C25.42 64.305 24.955 65.625 24.955 67.275C24.955 68.865 25.405 70.17 26.305 71.19C27.235 72.18 28.615 72.675 30.445 72.675ZM46.5539 73.17C46.5539 67.98 47.4839 63.915 49.3439 60.975C51.2339 58.035 54.3539 56.565 58.7039 56.565C63.0539 56.565 66.1589 58.035 68.0189 60.975C69.9089 63.915 70.8539 67.98 70.8539 73.17C70.8539 78.39 69.9089 82.485 68.0189 85.455C66.1589 88.425 63.0539 89.91 58.7039 89.91C54.3539 89.91 51.2339 88.425 49.3439 85.455C47.4839 82.485 46.5539 78.39 46.5539 73.17ZM64.6439 73.17C64.6439 70.95 64.4939 69.09 64.1939 67.59C63.9239 66.06 63.3539 64.815 62.4839 63.855C61.6439 62.895 60.3839 62.415 58.7039 62.415C57.0239 62.415 55.7489 62.895 54.8789 63.855C54.0389 64.815 53.4689 66.06 53.1689 67.59C52.8989 69.09 52.7639 70.95 52.7639 73.17C52.7639 75.45 52.8989 77.37 53.1689 78.93C53.4389 80.46 54.0089 81.705 54.8789 82.665C55.7489 83.595 57.0239 84.06 58.7039 84.06C60.3839 84.06 61.6589 83.595 62.5289 82.665C63.3989 81.705 63.9689 80.46 64.2389 78.93C64.5089 77.37 64.6439 75.45 64.6439 73.17ZM74.9257 65.25C74.9257 62.97 75.5857 61.185 76.9057 59.895C78.2557 58.605 79.9807 57.96 82.0807 57.96C84.1807 57.96 85.8907 58.605 87.2107 59.895C88.5607 61.185 89.2357 62.97 89.2357 65.25C89.2357 67.56 88.5607 69.36 87.2107 70.65C85.8907 71.94 84.1807 72.585 82.0807 72.585C79.9807 72.585 78.2557 71.94 76.9057 70.65C75.5857 69.36 74.9257 67.56 74.9257 65.25ZM103.816 58.5L86.1307 90H80.0107L97.6507 58.5H103.816ZM82.0357 61.74C80.3857 61.74 79.5607 62.91 79.5607 65.25C79.5607 67.62 80.3857 68.805 82.0357 68.805C82.8457 68.805 83.4757 68.52 83.9257 67.95C84.3757 67.35 84.6007 66.45 84.6007 65.25C84.6007 62.91 83.7457 61.74 82.0357 61.74ZM94.6807 83.205C94.6807 80.895 95.3407 79.11 96.6607 77.85C98.0107 76.56 99.7357 75.915 101.836 75.915C103.936 75.915 105.631 76.56 106.921 77.85C108.241 79.11 108.901 80.895 108.901 83.205C108.901 85.515 108.241 87.315 106.921 88.605C105.631 89.895 103.936 90.54 101.836 90.54C99.7057 90.54 97.9807 89.895 96.6607 88.605C95.3407 87.315 94.6807 85.515 94.6807 83.205ZM101.791 79.695C100.081 79.695 99.2257 80.865 99.2257 83.205C99.2257 85.575 100.081 86.76 101.791 86.76C103.471 86.76 104.311 85.575 104.311 83.205C104.311 80.865 103.471 79.695 101.791 79.695Z" fill="white"/>
</g>
<path d="M25.675 80.775C25.915 82.095 26.455 83.115 27.295 83.835C28.165 84.525 29.32 84.87 30.76 84.87C32.62 84.87 33.97 84.105 34.81 82.575C35.65 81.015 36.07 78.405 36.07 74.745C35.38 75.705 34.405 76.455 33.145 76.995C31.915 77.535 30.58 77.805 29.14 77.805C27.22 77.805 25.48 77.415 23.92 76.635C22.39 75.825 21.175 74.64 20.275 73.08C19.375 71.49 18.925 69.57 18.925 67.32C18.925 63.99 19.915 61.35 21.895 59.4C23.875 57.42 26.575 56.43 29.995 56.43C34.255 56.43 37.255 57.795 38.995 60.525C40.765 63.255 41.65 67.365 41.65 72.855C41.65 76.755 41.305 79.95 40.615 82.44C39.955 84.93 38.8 86.82 37.15 88.11C35.53 89.4 33.31 90.045 30.49 90.045C28.27 90.045 26.38 89.625 24.82 88.785C23.26 87.915 22.06 86.79 21.22 85.41C20.41 84 19.945 82.455 19.825 80.775H25.675ZM30.445 72.675C32.005 72.675 33.235 72.195 34.135 71.235C35.035 70.275 35.485 68.985 35.485 67.365C35.485 65.595 35.005 64.23 34.045 63.27C33.115 62.28 31.84 61.785 30.22 61.785C28.6 61.785 27.31 62.295 26.35 63.315C25.42 64.305 24.955 65.625 24.955 67.275C24.955 68.865 25.405 70.17 26.305 71.19C27.235 72.18 28.615 72.675 30.445 72.675ZM46.5539 73.17C46.5539 67.98 47.4839 63.915 49.3439 60.975C51.2339 58.035 54.3539 56.565 58.7039 56.565C63.0539 56.565 66.1589 58.035 68.0189 60.975C69.9089 63.915 70.8539 67.98 70.8539 73.17C70.8539 78.39 69.9089 82.485 68.0189 85.455C66.1589 88.425 63.0539 89.91 58.7039 89.91C54.3539 89.91 51.2339 88.425 49.3439 85.455C47.4839 82.485 46.5539 78.39 46.5539 73.17ZM64.6439 73.17C64.6439 70.95 64.4939 69.09 64.1939 67.59C63.9239 66.06 63.3539 64.815 62.4839 63.855C61.6439 62.895 60.3839 62.415 58.7039 62.415C57.0239 62.415 55.7489 62.895 54.8789 63.855C54.0389 64.815 53.4689 66.06 53.1689 67.59C52.8989 69.09 52.7639 70.95 52.7639 73.17C52.7639 75.45 52.8989 77.37 53.1689 78.93C53.4389 80.46 54.0089 81.705 54.8789 82.665C55.7489 83.595 57.0239 84.06 58.7039 84.06C60.3839 84.06 61.6589 83.595 62.5289 82.665C63.3989 81.705 63.9689 80.46 64.2389 78.93C64.5089 77.37 64.6439 75.45 64.6439 73.17ZM74.9257 65.25C74.9257 62.97 75.5857 61.185 76.9057 59.895C78.2557 58.605 79.9807 57.96 82.0807 57.96C84.1807 57.96 85.8907 58.605 87.2107 59.895C88.5607 61.185 89.2357 62.97 89.2357 65.25C89.2357 67.56 88.5607 69.36 87.2107 70.65C85.8907 71.94 84.1807 72.585 82.0807 72.585C79.9807 72.585 78.2557 71.94 76.9057 70.65C75.5857 69.36 74.9257 67.56 74.9257 65.25ZM103.816 58.5L86.1307 90H80.0107L97.6507 58.5H103.816ZM82.0357 61.74C80.3857 61.74 79.5607 62.91 79.5607 65.25C79.5607 67.62 80.3857 68.805 82.0357 68.805C82.8457 68.805 83.4757 68.52 83.9257 67.95C84.3757 67.35 84.6007 66.45 84.6007 65.25C84.6007 62.91 83.7457 61.74 82.0357 61.74ZM94.6807 83.205C94.6807 80.895 95.3407 79.11 96.6607 77.85C98.0107 76.56 99.7357 75.915 101.836 75.915C103.936 75.915 105.631 76.56 106.921 77.85C108.241 79.11 108.901 80.895 108.901 83.205C108.901 85.515 108.241 87.315 106.921 88.605C105.631 89.895 103.936 90.54 101.836 90.54C99.7057 90.54 97.9807 89.895 96.6607 88.605C95.3407 87.315 94.6807 85.515 94.6807 83.205ZM101.791 79.695C100.081 79.695 99.2257 80.865 99.2257 83.205C99.2257 85.575 100.081 86.76 101.791 86.76C103.471 86.76 104.311 85.575 104.311 83.205C104.311 80.865 103.471 79.695 101.791 79.695Z" fill="white" fill-opacity="0.8"/>
</g>
</g>
</g>
<defs>
<filter id="filter0_ii_4_927" x="0" y="2.48145" width="128" height="143.037" filterUnits="userSpaceOnUse" color-interpolation-filters="sRGB">
<feFlood flood-opacity="0" result="BackgroundImageFix"/>
<feBlend mode="normal" in="SourceGraphic" in2="BackgroundImageFix" result="shape"/>
<feColorMatrix in="SourceAlpha" type="matrix" values="0 0 0 0 0 0 0 0 0 0 0 0 0 0 0 0 0 0 127 0" result="hardAlpha"/>
<feOffset dy="4"/>
<feComposite in2="hardAlpha" operator="arithmetic" k2="-1" k3="1"/>
<feColorMatrix type="matrix" values="0 0 0 0 1 0 0 0 0 1 0 0 0 0 1 0 0 0 0.5 0"/>
<feBlend mode="overlay" in2="shape" result="effect1_innerShadow_4_927"/>
<feColorMatrix in="SourceAlpha" type="matrix" values="0 0 0 0 0 0 0 0 0 0 0 0 0 0 0 0 0 0 127 0" result="hardAlpha"/>
<feOffset dy="-4"/>
<feComposite in2="hardAlpha" operator="arithmetic" k2="-1" k3="1"/>
<feColorMatrix type="matrix" values="0 0 0 0 0.0942307 0 0 0 0 0.0942307 0 0 0 0 0.0942307 0 0 0 0.5 0"/>
<feBlend mode="overlay" in2="effect1_innerShadow_4_927" result="effect2_innerShadow_4_927"/>
</filter>
<filter id="filter1_f_4_927" x="5" y="32" width="177" height="170" filterUnits="userSpaceOnUse" color-interpolation-filters="sRGB">
<feFlood flood-opacity="0" result="BackgroundImageFix"/>
<feBlend mode="normal" in="SourceGraphic" in2="BackgroundImageFix" result="shape"/>
<feGaussianBlur stdDeviation="32" result="effect1_foregroundBlur_4_927"/>
</filter>
<filter id="filter2_f_4_927" x="-64" y="-54" width="177" height="170" filterUnits="userSpaceOnUse" color-interpolation-filters="sRGB">
<feFlood flood-opacity="0" result="BackgroundImageFix"/>
<feBlend mode="normal" in="SourceGraphic" in2="BackgroundImageFix" result="shape"/>
<feGaussianBlur stdDeviation="32" result="effect1_foregroundBlur_4_927"/>
</filter>
<filter id="filter3_d_4_927" x="14.9248" y="56.4302" width="97.9756" height="42.1099" filterUnits="userSpaceOnUse" color-interpolation-filters="sRGB">
<feFlood flood-opacity="0" result="BackgroundImageFix"/>
<feColorMatrix in="SourceAlpha" type="matrix" values="0 0 0 0 0 0 0 0 0 0 0 0 0 0 0 0 0 0 127 0" result="hardAlpha"/>
<feOffset dy="4"/>
<feGaussianBlur stdDeviation="2"/>
<feComposite in2="hardAlpha" operator="out"/>
<feColorMatrix type="matrix" values="0 0 0 0 0 0 0 0 0 0 0 0 0 0 0 0 0 0 0.25 0"/>
<feBlend mode="normal" in2="BackgroundImageFix" result="effect1_dropShadow_4_927"/>
<feBlend mode="normal" in="SourceGraphic" in2="effect1_dropShadow_4_927" result="shape"/>
</filter>
<linearGradient id="paint0_linear_4_927" x1="64" y1="6.23345e-06" x2="47.4955" y2="172.42" gradientUnits="userSpaceOnUse">
<stop stop-color="#E44AFF"/>
<stop offset="1" stop-color="#F693A7"/>
</linearGradient>
<clipPath id="clip0_4_927">
<rect width="128" height="174" fill="white" transform="translate(0 -13)"/>
</clipPath>
</defs>
</svg>
