<svg width="128" height="148" viewBox="0 0 128 148" fill="none" xmlns="http://www.w3.org/2000/svg">
<g filter="url(#filter0_ii_4_926)">
<mask id="mask0_4_926" style="mask-type:alpha" maskUnits="userSpaceOnUse" x="0" y="2" width="128" height="144">
<path d="M55.9919 4.62966C60.9464 1.76533 67.0535 1.76533 72.008 4.62965L120.008 32.3796C124.954 35.239 128 40.5185 128 46.2314V101.769C128 107.482 124.954 112.761 120.008 115.62L72.008 143.37C67.0535 146.235 60.9465 146.235 55.9919 143.37L7.99196 115.62C3.04608 112.761 0 107.482 0 101.769V46.2314C0 40.5185 3.04607 35.239 7.99195 32.3797L55.9919 4.62966Z" fill="#D9D9D9"/>
</mask>
<g mask="url(#mask0_4_926)">
<g clip-path="url(#clip0_4_926)">
<rect width="128" height="174" transform="translate(0 -13)" fill="white"/>
<rect width="128" height="174" transform="translate(0 -13)" fill="url(#paint0_linear_4_926)"/>
<g filter="url(#filter1_f_4_926)" style="mix-blend-mode:soft-light">
<ellipse cx="115" cy="112" rx="33" ry="19" fill="#9919D9"/>
</g>
<g filter="url(#filter2_f_4_926)" style="mix-blend-mode:soft-light">
<ellipse cx="22" cy="36" rx="33" ry="19" fill="#BFD919"/>
</g>
<g filter="url(#filter3_d_4_926)" style="mix-blend-mode:overlay">
<path d="M25.675 80.775C25.915 82.095 26.455 83.115 27.295 83.835C28.165 84.525 29.32 84.87 30.76 84.87C32.62 84.87 33.97 84.105 34.81 82.575C35.65 81.015 36.07 78.405 36.07 74.745C35.38 75.705 34.405 76.455 33.145 76.995C31.915 77.535 30.58 77.805 29.14 77.805C27.22 77.805 25.48 77.415 23.92 76.635C22.39 75.825 21.175 74.64 20.275 73.08C19.375 71.49 18.925 69.57 18.925 67.32C18.925 63.99 19.915 61.35 21.895 59.4C23.875 57.42 26.575 56.43 29.995 56.43C34.255 56.43 37.255 57.795 38.995 60.525C40.765 63.255 41.65 67.365 41.65 72.855C41.65 76.755 41.305 79.95 40.615 82.44C39.955 84.93 38.8 86.82 37.15 88.11C35.53 89.4 33.31 90.045 30.49 90.045C28.27 90.045 26.38 89.625 24.82 88.785C23.26 87.915 22.06 86.79 21.22 85.41C20.41 84 19.945 82.455 19.825 80.775H25.675ZM30.445 72.675C32.005 72.675 33.235 72.195 34.135 71.235C35.035 70.275 35.485 68.985 35.485 67.365C35.485 65.595 35.005 64.23 34.045 63.27C33.115 62.28 31.84 61.785 30.22 61.785C28.6 61.785 27.31 62.295 26.35 63.315C25.42 64.305 24.955 65.625 24.955 67.275C24.955 68.865 25.405 70.17 26.305 71.19C27.235 72.18 28.615 72.675 30.445 72.675ZM68.6039 62.64H54.0239V70.335C54.6539 69.555 55.5539 68.925 56.7239 68.445C57.8939 67.935 59.1389 67.68 60.4589 67.68C62.8589 67.68 64.8239 68.205 66.3539 69.255C67.8839 70.305 68.9939 71.655 69.6839 73.305C70.3739 74.925 70.7189 76.665 70.7189 78.525C70.7189 81.975 69.7289 84.75 67.7489 86.85C65.7989 88.95 63.0089 90 59.3789 90C55.9589 90 53.2289 89.145 51.1889 87.435C49.1489 85.725 47.9939 83.49 47.7239 80.73H53.8439C54.1139 81.93 54.7139 82.89 55.6439 83.61C56.6039 84.33 57.8189 84.69 59.2889 84.69C61.0589 84.69 62.3939 84.135 63.2939 83.025C64.1939 81.915 64.6439 80.445 64.6439 78.615C64.6439 76.755 64.1789 75.345 63.2489 74.385C62.3489 73.395 61.0139 72.9 59.2439 72.9C57.9839 72.9 56.9339 73.215 56.0939 73.845C55.2539 74.475 54.6539 75.315 54.2939 76.365H48.2639V57.105H68.6039V62.64ZM74.7939 65.25C74.7939 62.97 75.4539 61.185 76.7739 59.895C78.1239 58.605 79.8489 57.96 81.9489 57.96C84.0489 57.96 85.7589 58.605 87.0789 59.895C88.4289 61.185 89.1039 62.97 89.1039 65.25C89.1039 67.56 88.4289 69.36 87.0789 70.65C85.7589 71.94 84.0489 72.585 81.9489 72.585C79.8489 72.585 78.1239 71.94 76.7739 70.65C75.4539 69.36 74.7939 67.56 74.7939 65.25ZM103.684 58.5L85.9989 90H79.8789L97.5189 58.5H103.684ZM81.9039 61.74C80.2539 61.74 79.4289 62.91 79.4289 65.25C79.4289 67.62 80.2539 68.805 81.9039 68.805C82.7139 68.805 83.3439 68.52 83.7939 67.95C84.2439 67.35 84.4689 66.45 84.4689 65.25C84.4689 62.91 83.6139 61.74 81.9039 61.74ZM94.5489 83.205C94.5489 80.895 95.2089 79.11 96.5289 77.85C97.8789 76.56 99.6039 75.915 101.704 75.915C103.804 75.915 105.499 76.56 106.789 77.85C108.109 79.11 108.769 80.895 108.769 83.205C108.769 85.515 108.109 87.315 106.789 88.605C105.499 89.895 103.804 90.54 101.704 90.54C99.5739 90.54 97.8489 89.895 96.5289 88.605C95.2089 87.315 94.5489 85.515 94.5489 83.205ZM101.659 79.695C99.9489 79.695 99.0939 80.865 99.0939 83.205C99.0939 85.575 99.9489 86.76 101.659 86.76C103.339 86.76 104.179 85.575 104.179 83.205C104.179 80.865 103.339 79.695 101.659 79.695Z" fill="white"/>
</g>
<path d="M25.675 80.775C25.915 82.095 26.455 83.115 27.295 83.835C28.165 84.525 29.32 84.87 30.76 84.87C32.62 84.87 33.97 84.105 34.81 82.575C35.65 81.015 36.07 78.405 36.07 74.745C35.38 75.705 34.405 76.455 33.145 76.995C31.915 77.535 30.58 77.805 29.14 77.805C27.22 77.805 25.48 77.415 23.92 76.635C22.39 75.825 21.175 74.64 20.275 73.08C19.375 71.49 18.925 69.57 18.925 67.32C18.925 63.99 19.915 61.35 21.895 59.4C23.875 57.42 26.575 56.43 29.995 56.43C34.255 56.43 37.255 57.795 38.995 60.525C40.765 63.255 41.65 67.365 41.65 72.855C41.65 76.755 41.305 79.95 40.615 82.44C39.955 84.93 38.8 86.82 37.15 88.11C35.53 89.4 33.31 90.045 30.49 90.045C28.27 90.045 26.38 89.625 24.82 88.785C23.26 87.915 22.06 86.79 21.22 85.41C20.41 84 19.945 82.455 19.825 80.775H25.675ZM30.445 72.675C32.005 72.675 33.235 72.195 34.135 71.235C35.035 70.275 35.485 68.985 35.485 67.365C35.485 65.595 35.005 64.23 34.045 63.27C33.115 62.28 31.84 61.785 30.22 61.785C28.6 61.785 27.31 62.295 26.35 63.315C25.42 64.305 24.955 65.625 24.955 67.275C24.955 68.865 25.405 70.17 26.305 71.19C27.235 72.18 28.615 72.675 30.445 72.675ZM68.6039 62.64H54.0239V70.335C54.6539 69.555 55.5539 68.925 56.7239 68.445C57.8939 67.935 59.1389 67.68 60.4589 67.68C62.8589 67.68 64.8239 68.205 66.3539 69.255C67.8839 70.305 68.9939 71.655 69.6839 73.305C70.3739 74.925 70.7189 76.665 70.7189 78.525C70.7189 81.975 69.7289 84.75 67.7489 86.85C65.7989 88.95 63.0089 90 59.3789 90C55.9589 90 53.2289 89.145 51.1889 87.435C49.1489 85.725 47.9939 83.49 47.7239 80.73H53.8439C54.1139 81.93 54.7139 82.89 55.6439 83.61C56.6039 84.33 57.8189 84.69 59.2889 84.69C61.0589 84.69 62.3939 84.135 63.2939 83.025C64.1939 81.915 64.6439 80.445 64.6439 78.615C64.6439 76.755 64.1789 75.345 63.2489 74.385C62.3489 73.395 61.0139 72.9 59.2439 72.9C57.9839 72.9 56.9339 73.215 56.0939 73.845C55.2539 74.475 54.6539 75.315 54.2939 76.365H48.2639V57.105H68.6039V62.64ZM74.7939 65.25C74.7939 62.97 75.4539 61.185 76.7739 59.895C78.1239 58.605 79.8489 57.96 81.9489 57.96C84.0489 57.96 85.7589 58.605 87.0789 59.895C88.4289 61.185 89.1039 62.97 89.1039 65.25C89.1039 67.56 88.4289 69.36 87.0789 70.65C85.7589 71.94 84.0489 72.585 81.9489 72.585C79.8489 72.585 78.1239 71.94 76.7739 70.65C75.4539 69.36 74.7939 67.56 74.7939 65.25ZM103.684 58.5L85.9989 90H79.8789L97.5189 58.5H103.684ZM81.9039 61.74C80.2539 61.74 79.4289 62.91 79.4289 65.25C79.4289 67.62 80.2539 68.805 81.9039 68.805C82.7139 68.805 83.3439 68.52 83.7939 67.95C84.2439 67.35 84.4689 66.45 84.4689 65.25C84.4689 62.91 83.6139 61.74 81.9039 61.74ZM94.5489 83.205C94.5489 80.895 95.2089 79.11 96.5289 77.85C97.8789 76.56 99.6039 75.915 101.704 75.915C103.804 75.915 105.499 76.56 106.789 77.85C108.109 79.11 108.769 80.895 108.769 83.205C108.769 85.515 108.109 87.315 106.789 88.605C105.499 89.895 103.804 90.54 101.704 90.54C99.5739 90.54 97.8489 89.895 96.5289 88.605C95.2089 87.315 94.5489 85.515 94.5489 83.205ZM101.659 79.695C99.9489 79.695 99.0939 80.865 99.0939 83.205C99.0939 85.575 99.9489 86.76 101.659 86.76C103.339 86.76 104.179 85.575 104.179 83.205C104.179 80.865 103.339 79.695 101.659 79.695Z" fill="white" fill-opacity="0.8"/>
</g>
</g>
</g>
<defs>
<filter id="filter0_ii_4_926" x="0" y="2.48145" width="128" height="143.037" filterUnits="userSpaceOnUse" color-interpolation-filters="sRGB">
<feFlood flood-opacity="0" result="BackgroundImageFix"/>
<feBlend mode="normal" in="SourceGraphic" in2="BackgroundImageFix" result="shape"/>
<feColorMatrix in="SourceAlpha" type="matrix" values="0 0 0 0 0 0 0 0 0 0 0 0 0 0 0 0 0 0 127 0" result="hardAlpha"/>
<feOffset dy="4"/>
<feComposite in2="hardAlpha" operator="arithmetic" k2="-1" k3="1"/>
<feColorMatrix type="matrix" values="0 0 0 0 1 0 0 0 0 1 0 0 0 0 1 0 0 0 0.5 0"/>
<feBlend mode="overlay" in2="shape" result="effect1_innerShadow_4_926"/>
<feColorMatrix in="SourceAlpha" type="matrix" values="0 0 0 0 0 0 0 0 0 0 0 0 0 0 0 0 0 0 127 0" result="hardAlpha"/>
<feOffset dy="-4"/>
<feComposite in2="hardAlpha" operator="arithmetic" k2="-1" k3="1"/>
<feColorMatrix type="matrix" values="0 0 0 0 0.0942307 0 0 0 0 0.0942307 0 0 0 0 0.0942307 0 0 0 0.5 0"/>
<feBlend mode="overlay" in2="effect1_innerShadow_4_926" result="effect2_innerShadow_4_926"/>
</filter>
<filter id="filter1_f_4_926" x="18" y="29" width="194" height="166" filterUnits="userSpaceOnUse" color-interpolation-filters="sRGB">
<feFlood flood-opacity="0" result="BackgroundImageFix"/>
<feBlend mode="normal" in="SourceGraphic" in2="BackgroundImageFix" result="shape"/>
<feGaussianBlur stdDeviation="32" result="effect1_foregroundBlur_4_926"/>
</filter>
<filter id="filter2_f_4_926" x="-75" y="-47" width="194" height="166" filterUnits="userSpaceOnUse" color-interpolation-filters="sRGB">
<feFlood flood-opacity="0" result="BackgroundImageFix"/>
<feBlend mode="normal" in="SourceGraphic" in2="BackgroundImageFix" result="shape"/>
<feGaussianBlur stdDeviation="32" result="effect1_foregroundBlur_4_926"/>
</filter>
<filter id="filter3_d_4_926" x="14.9248" y="56.4302" width="97.8438" height="42.1099" filterUnits="userSpaceOnUse" color-interpolation-filters="sRGB">
<feFlood flood-opacity="0" result="BackgroundImageFix"/>
<feColorMatrix in="SourceAlpha" type="matrix" values="0 0 0 0 0 0 0 0 0 0 0 0 0 0 0 0 0 0 127 0" result="hardAlpha"/>
<feOffset dy="4"/>
<feGaussianBlur stdDeviation="2"/>
<feComposite in2="hardAlpha" operator="out"/>
<feColorMatrix type="matrix" values="0 0 0 0 0 0 0 0 0 0 0 0 0 0 0 0 0 0 0.25 0"/>
<feBlend mode="normal" in2="BackgroundImageFix" result="effect1_dropShadow_4_926"/>
<feBlend mode="normal" in="SourceGraphic" in2="effect1_dropShadow_4_926" result="shape"/>
</filter>
<linearGradient id="paint0_linear_4_926" x1="64" y1="6.23345e-06" x2="47.4955" y2="172.42" gradientUnits="userSpaceOnUse">
<stop stop-color="#FF445A"/>
<stop offset="1" stop-color="#FF7C44"/>
</linearGradient>
<clipPath id="clip0_4_926">
<rect width="128" height="174" fill="white" transform="translate(0 -13)"/>
</clipPath>
</defs>
</svg>
